<svg width="150" height="150" viewBox="0 0 150 150" fill="none" xmlns="http://www.w3.org/2000/svg">
<rect width="150" height="150" rx="51" fill="white"/>
<path d="M69.8231 125V115.875L61.4351 122.625L54.6199 115L69.8231 102.75V83.75L52.5229 93.25L48.9843 111.875L38.6304 110.125L40.5963 99.75L32.2084 104.375L26.9659 95.75L35.3539 91.125L25 87.5L28.5387 78.125L47.2805 84.5L64.5806 75L47.2805 65.5L28.5387 72L25 62.5L35.3539 59L26.9659 54.375L32.2084 45.75L40.5963 50.375L38.6304 40L48.9843 38.25L52.5229 56.875L69.8231 66.375V47.375L54.6199 35.125L61.4351 27.5L69.8231 34.25V25H80.308V34.25L88.6959 27.5L95.5111 35.125L80.308 47.375V66.375L97.4771 56.875L101.016 38.25L111.37 40L109.404 50.375L117.792 45.75L123.034 54.375L114.646 59L125 62.5L121.461 72L102.72 65.5L85.5505 75L102.72 84.5L121.461 78.125L125 87.5L114.646 91.125L123.034 95.75L117.792 104.375L109.404 99.75L111.37 110.125L101.016 111.875L97.4771 93.25L80.308 83.75V102.75L95.5111 115L88.6959 122.625L80.308 115.875V125H69.8231Z" fill="#146DD2"/>
</svg>
